<?xml version="1.0" standalone="no"?>
<!DOCTYPE svg PUBLIC "-//W3C//DTD SVG 20010904//EN"
 "http://www.w3.org/TR/2001/REC-SVG-20010904/DTD/svg10.dtd">
<svg version="1.0" xmlns="http://www.w3.org/2000/svg"
 width="800.000000pt" height="800.000000pt" viewBox="0 0 800.000000 800.000000"
 preserveAspectRatio="xMidYMid meet">
<metadata>
Created by potrace 1.11, written by Peter Selinger 2001-2013
</metadata>
<g transform="translate(0.000000,800.000000) scale(0.100000,-0.100000)"
fill="#000000" stroke="none">
<path d="M2495 6584 c-77 -40 -99 -88 -94 -209 0 -11 0 -26 0 -32 -2 -26 -2
-39 0 -91 1 -29 0 -55 -4 -58 -3 -3 -1 -18 3 -34 4 -16 6 -31 3 -34 -7 -7 -7
-105 0 -112 3 -3 1 -19 -3 -35 -5 -16 -5 -31 0 -34 5 -3 6 -15 0 -29 -4 -12
-4 -29 0 -36 5 -8 5 -21 0 -31 -5 -9 -7 -19 -4 -22 8 -8 9 -106 1 -113 -3 -3
-1 -18 3 -34 4 -16 6 -31 3 -34 -4 -3 -5 -29 -4 -58 1 -29 1 -62 1 -73 -1 -11
-1 -26 -1 -32 1 -7 1 -21 1 -30 0 -10 0 -27 0 -38 1 -11 1 -26 1 -32 -2 -26
-2 -39 0 -91 1 -29 0 -55 -4 -58 -3 -3 -1 -18 3 -34 4 -16 6 -31 3 -34 -7 -7
-7 -105 0 -112 3 -3 1 -19 -3 -35 -5 -16 -5 -31 0 -34 5 -3 6 -15 0 -29 -4
-12 -4 -29 0 -36 5 -8 5 -21 0 -31 -5 -9 -7 -19 -4 -22 8 -8 9 -106 1 -113 -3
-3 -1 -18 3 -34 4 -16 6 -31 3 -34 -8 -7 -7 -105 0 -113 3 -3 2 -15 -3 -27 -4
-12 -4 -29 1 -38 6 -10 6 -19 0 -22 -6 -4 -6 -18 -1 -36 5 -18 5 -32 -1 -36
-5 -3 -7 -9 -4 -14 3 -4 7 -30 10 -57 9 -87 58 -130 163 -141 40 -5 77 -5 83
-1 7 4 25 3 40 -1 16 -5 29 -5 29 0 0 5 13 5 29 0 15 -4 34 -4 42 0 7 5 17 6
21 3 12 -6 158 -7 164 0 3 3 19 1 35 -3 16 -5 29 -5 29 0 0 5 13 5 29 0 15 -4
34 -4 42 0 7 5 17 6 21 3 12 -6 158 -7 164 0 3 3 19 1 35 -3 16 -5 29 -5 29 0
0 5 13 5 29 0 15 -4 34 -4 42 0 7 5 17 6 21 3 12 -6 158 -7 164 0 3 3 19 1 35
-3 16 -5 29 -5 29 0 0 5 13 5 29 0 15 -4 34 -4 41 0 7 5 23 5 34 2 12 -4 37
-6 56 -5 19 2 53 3 75 2 38 -1 47 0 78 2 13 1 111 0 167 -2 19 -1 41 -1 48 0
6 1 18 1 25 2 13 1 111 0 167 -2 19 -1 41 -1 48 0 6 1 18 1 25 2 6 1 37 1 67
0 48 -1 109 2 154 7 24 3 73 50 91 88 14 30 17 63 15 193 -1 86 -1 167 0 181
1 14 2 32 1 40 0 8 0 49 0 90 0 41 0 82 0 90 -2 62 0 113 4 121 4 5 2 9 -3 9
-5 0 -6 20 -2 45 4 25 4 45 0 45 -3 0 -4 21 -1 48 4 26 4 68 1 93 -3 25 -3 56
0 70 3 13 3 40 0 59 -3 19 -3 60 0 91 3 31 3 67 0 80 -3 13 -3 43 0 67 4 23 4
42 0 42 -4 0 -4 20 0 45 4 25 4 45 0 45 -3 0 -4 21 -1 48 4 26 4 68 1 93 -3
25 -3 56 0 70 3 13 3 40 0 59 -3 19 -3 60 0 91 3 31 3 67 0 80 -4 13 -3 41 1
62 3 20 3 39 -1 42 -4 3 -4 23 0 45 4 21 5 41 3 44 -3 2 -6 30 -8 61 -4 67
-41 123 -96 142 -25 9 -302 12 -1104 12 -951 1 -1073 -1 -1100 -15z"/>
<path d="M202 3799 c-9 -3 -29 -4 -45 -3 -42 5 -91 -19 -123 -62 l-29 -37 -2
-1093 -3 -1093 33 -43 c19 -25 47 -48 67 -55 55 -19 2159 -18 2204 1 44 18 87
76 92 123 7 76 8 123 2 129 -3 3 -2 19 2 35 5 16 5 31 0 34 -5 3 -6 15 0 29 4
12 4 29 0 36 -5 8 -5 21 0 30 5 9 5 22 1 28 -4 7 -5 35 -1 62 4 27 3 55 -1 61
-4 7 -3 25 1 40 5 16 5 31 0 34 -5 3 -6 15 0 29 4 12 4 29 0 36 -5 8 -5 21 0
30 5 9 5 22 1 28 -4 7 -5 35 -1 62 4 27 3 55 -1 61 -4 7 -3 25 1 40 5 16 5 31
0 34 -5 3 -6 15 0 29 4 12 4 29 0 36 -5 8 -5 21 0 30 5 9 5 22 1 28 -4 7 -5
35 -1 62 4 27 3 55 -1 61 -4 7 -3 25 1 40 5 16 5 31 0 34 -5 3 -6 15 0 29 4
12 4 29 0 36 -5 8 -5 21 0 30 5 9 5 22 1 28 -4 7 -5 35 -1 62 4 27 3 55 -1 62
-4 6 -4 19 1 28 5 9 5 22 0 30 -4 7 -4 24 0 36 6 14 5 26 0 29 -5 3 -5 18 0
34 4 16 6 32 4 34 -7 7 -9 106 -2 112 3 4 2 19 -2 35 -4 16 -6 31 -3 34 8 7 7
105 0 113 -3 3 -2 15 3 27 4 12 4 29 -1 38 -6 10 -6 19 0 22 6 4 6 18 1 36 -5
18 -5 32 1 36 5 3 7 9 4 14 -3 4 -7 30 -10 57 -5 51 -24 84 -67 116 -26 20
-170 38 -204 27 -10 -4 -35 -4 -55 0 -21 4 -42 4 -47 1 -6 -3 -49 -4 -97 -1
-48 3 -92 2 -97 -1 -6 -4 -24 -3 -39 1 -16 5 -29 5 -29 0 0 -5 -13 -5 -29 0
-15 4 -34 4 -41 0 -7 -5 -23 -5 -34 -2 -12 4 -37 6 -56 5 -19 -2 -53 -3 -75
-2 -38 1 -47 0 -77 -2 -14 -1 -112 0 -168 2 -19 1 -41 1 -47 0 -7 -1 -19 -1
-25 -2 -13 -1 -115 0 -153 1 -11 1 -27 1 -35 1 -90 -2 -122 -1 -128 3 -5 3
-14 1 -21 -4 -8 -4 -27 -4 -42 0 -16 5 -29 5 -29 0 0 -5 -13 -5 -29 0 -15 4
-34 4 -42 0 -7 -5 -17 -6 -21 -3 -5 2 -50 4 -101 3 -51 0 -108 0 -127 1 -19 0
-42 1 -50 0 -20 -2 -82 -1 -153 2 -32 1 -65 -1 -75 -4z"/>
<path d="M2930 3793 c-30 -7 -65 -24 -78 -36 -26 -24 -55 -84 -47 -97 3 -5 1
-11 -4 -14 -5 -3 -6 -21 -2 -38 4 -18 4 -46 1 -63 -3 -16 -3 -42 1 -56 4 -14
2 -33 -3 -42 -5 -10 -5 -17 -1 -17 5 0 6 -29 3 -65 -3 -36 -2 -65 3 -65 4 0 5
-5 1 -11 -3 -6 -5 -41 -5 -77 2 -73 1 -133 -2 -172 -1 -14 1 -37 5 -52 3 -15
3 -30 -2 -33 -4 -3 -5 -17 -1 -32 4 -15 4 -46 1 -70 -4 -23 -3 -40 2 -37 4 3
4 -5 0 -17 -5 -12 -6 -39 -3 -58 4 -20 4 -52 1 -71 -3 -19 -3 -50 1 -67 4 -18
4 -33 0 -33 -3 0 -6 -18 -6 -39 0 -22 4 -37 9 -34 5 4 6 0 1 -7 -4 -7 -7 -42
-6 -79 2 -71 2 -119 -2 -193 -1 -25 1 -44 5 -42 4 3 4 -5 0 -17 -5 -12 -6 -39
-3 -58 4 -20 4 -52 1 -71 -3 -19 -3 -50 1 -67 4 -18 4 -33 0 -33 -3 0 -6 -18
-6 -39 0 -22 4 -37 9 -33 5 3 6 -1 1 -8 -4 -7 -7 -42 -6 -79 3 -104 3 -114 2
-141 -4 -58 3 -117 15 -140 17 -34 60 -70 98 -81 17 -5 501 -9 1095 -9 1064 0
1064 0 1106 21 51 25 88 90 84 144 -2 18 -1 37 3 40 3 4 3 19 -1 33 -7 26 -7
50 2 102 2 14 1 37 -3 51 -4 14 -3 33 2 42 5 10 5 17 1 17 -5 0 -6 31 -3 69 3
40 1 67 -4 64 -5 -4 -6 0 -1 7 4 7 7 42 6 79 -3 87 -2 132 2 156 2 11 1 32 -3
46 -4 14 -3 33 2 42 5 10 5 17 1 17 -5 0 -6 31 -3 69 3 40 1 67 -4 64 -5 -4
-6 0 -1 7 4 7 7 42 6 79 -2 70 -1 130 2 171 1 14 -1 37 -5 52 -3 15 -3 30 2
33 5 3 5 18 1 33 -5 15 -5 36 -1 46 4 11 4 33 1 48 -3 16 -4 64 -1 108 3 44 3
80 0 80 -3 0 -3 29 0 65 3 35 3 71 0 79 -3 8 -3 51 0 96 3 44 1 80 -3 80 -5 0
-6 4 -2 9 5 9 6 43 4 181 -1 81 -53 152 -119 165 -12 2 -55 4 -94 4 -39 0 -80
1 -91 1 -11 1 -27 1 -35 1 -90 -2 -122 -1 -128 3 -5 3 -14 1 -21 -4 -8 -4 -27
-4 -42 0 -16 5 -29 5 -29 0 0 -5 -13 -5 -29 0 -15 4 -34 4 -42 0 -7 -5 -17 -6
-21 -3 -5 2 -50 4 -101 3 -51 0 -108 0 -127 1 -19 0 -41 1 -47 0 -27 -2 -216
-3 -273 0 -19 0 -41 1 -47 0 -7 -1 -19 -1 -25 -2 -14 -1 -112 0 -168 2 -19 1
-41 1 -47 0 -7 -1 -19 -1 -25 -2 -14 -1 -112 0 -168 2 -19 1 -42 1 -50 0 -33
-2 -115 0 -118 4 -2 2 -14 0 -26 -4 -11 -5 -30 -5 -41 -1 -11 4 -34 4 -52 -1
-18 -4 -35 -3 -38 2 -3 4 -15 5 -27 0 -12 -4 -38 -5 -59 -1 -21 4 -43 4 -49 0
-7 -4 -26 -4 -44 0 -19 4 -54 1 -86 -7z"/>
<path d="M5868 3804 c-3 -2 -41 -6 -85 -7 -71 -2 -84 -6 -117 -31 -46 -34 -71
-95 -66 -161 2 -25 1 -32 -2 -77 -2 -21 0 -38 3 -38 4 0 3 -16 -1 -35 -5 -21
-4 -35 2 -35 5 0 6 -5 3 -10 -4 -6 -6 -32 -6 -58 1 -26 1 -56 1 -67 0 -11 0
-29 0 -40 1 -11 1 -27 0 -35 0 -8 0 -24 0 -35 1 -11 1 -26 1 -32 -2 -26 -2
-39 0 -91 1 -29 0 -55 -4 -58 -3 -3 -1 -18 3 -34 4 -16 6 -31 3 -34 -8 -7 -7
-105 1 -113 3 -3 1 -13 -4 -22 -5 -10 -5 -23 0 -31 4 -7 4 -24 0 -36 -6 -14
-5 -26 0 -29 5 -3 5 -18 1 -33 -4 -15 -5 -38 -1 -52 3 -14 3 -42 0 -62 -4 -20
-4 -42 1 -49 4 -7 4 -20 -1 -29 -5 -9 -5 -22 0 -30 4 -7 4 -24 0 -36 -6 -14
-5 -26 0 -29 5 -3 5 -18 1 -33 -4 -15 -5 -38 -1 -52 3 -14 3 -42 0 -62 -4 -20
-4 -42 0 -49 4 -6 4 -25 0 -40 -5 -16 -5 -31 0 -34 5 -3 6 -15 0 -29 -4 -12
-4 -29 0 -36 5 -8 5 -21 0 -31 -5 -9 -7 -19 -4 -22 8 -8 9 -106 1 -113 -3 -3
-1 -18 3 -34 4 -16 6 -31 3 -34 -4 -3 -5 -29 -4 -58 1 -29 1 -62 1 -73 -1 -11
-1 -27 0 -35 0 -8 0 -24 0 -35 -2 -34 -1 -39 5 -75 9 -47 54 -102 96 -117 25
-9 302 -12 1102 -12 1190 -1 1109 -6 1165 67 l27 35 2 1089 c2 854 0 1093 -10
1111 -43 77 -104 104 -217 96 -16 -1 -112 0 -170 2 -19 1 -41 1 -47 0 -7 -1
-19 -1 -25 -2 -14 -1 -112 0 -168 2 -19 1 -42 1 -50 0 -33 -2 -115 0 -118 4
-2 2 -14 0 -26 -4 -11 -5 -30 -5 -41 -1 -11 4 -34 4 -52 -1 -18 -4 -35 -3 -38
2 -3 4 -15 5 -27 0 -12 -4 -38 -5 -59 -1 -21 4 -43 4 -50 -1 -7 -4 -16 -6 -20
-4 -3 3 -33 4 -65 5 -32 0 -75 0 -94 1 -19 1 -41 1 -47 0 -7 -1 -19 -1 -25 -2
-13 -1 -115 0 -153 1 -11 1 -27 1 -35 1 -8 0 -44 0 -80 0 -36 0 -72 0 -80 0
-8 -1 -33 -1 -55 0 -22 0 -46 0 -52 0 -19 -2 -58 -2 -153 -2 -124 0 -152 1
-160 6 -4 3 -10 2 -12 -1z"/>
</g>
</svg>
